<?xml version="1.0" encoding="UTF-8"?>
<!DOCTYPE svg PUBLIC "-//W3C//DTD SVG 1.1//EN" "http://www.w3.org/Graphics/SVG/1.1/DTD/svg11.dtd">
<!-- Creator: CorelDRAW 2019 (64 Bit) -->
<svg xmlns="http://www.w3.org/2000/svg" xml:space="preserve" width="115.655mm" height="65.024mm" version="1.1" style="shape-rendering:geometricPrecision; text-rendering:geometricPrecision; image-rendering:optimizeQuality; fill-rule:evenodd; clip-rule:evenodd"
viewBox="0 0 11565.48 6502.41"
 xmlns:xlink="http://www.w3.org/1999/xlink"
 xmlns:xodm="http://www.corel.com/coreldraw/odm/2003">
 <defs>
  <style type="text/css">
   <![CDATA[
    .fil0 {fill:#87BFDA}
    .fil3 {fill:#CAE7F5}
    .fil2 {fill:#F3CEA1}
    .fil4 {fill:#202630;fill-opacity:0.588235}
    .fil1 {fill:#4CA0CA;fill-opacity:0.600000}
   ]]>
  </style>
 </defs>
 <g id="Camada_x0020_1">
  <metadata id="CorelCorpID_0Corel-Layer"/>
  <rect class="fil0" x="-0.01" width="11565.48" height="6502.41"/>
  <path class="fil1" d="M-0 5681.13c536.11,0 1775.34,-1274.82 2035.73,-1833.33 273.75,-587.19 375.68,-1618.39 656.9,-2365.74 122.83,-326.43 475.31,-1153.75 538.05,-1482.05l-3230.68 0 0 5681.12z"/>
  <path class="fil2" d="M6670.65 6502.4l4894.82 0 0 -6502.39 -2307.94 0c-25.58,58.76 -68.07,126.95 -98.52,184.22 -219.77,413.45 -183.91,924.75 -370.6,1348.24 -230.42,522.68 -806.93,1554.07 -1066.8,2048.93 -631.43,1202.4 -923.29,1510.63 -1050.96,2920.99z"/>
  <path class="fil3" d="M6670.65 6502.4l-210.88 0.01c0,-6.3 0.28,-12.64 0.86,-19.03 110.94,-1225.54 340.26,-1646.28 794.99,-2480.59 80.64,-147.95 169.04,-310.12 279.13,-519.77 73.82,-140.57 167.82,-314.63 271.82,-507.22 276.44,-511.92 623.69,-1154.94 788.36,-1528.48 76.36,-173.21 112.91,-377.67 149.49,-582.37 47.29,-264.58 94.67,-529.6 227.73,-779.93 2.5,-4.7 19.66,-35.03 36.98,-65.63l10.95 -19.38 237.45 0 0 0.01c-25.58,58.76 -68.07,126.95 -98.52,184.22 -219.77,413.45 -183.91,924.75 -370.6,1348.24 -230.42,522.68 -806.93,1554.07 -1066.8,2048.93 -631.43,1202.4 -923.29,1510.63 -1050.96,2920.99z"/>
  <path class="fil4" d="M10094.64 6156.3l0 0zm534.24 346.1l520.65 0c8.17,-29.15 17.39,-72.32 32.01,-136.83 8.77,-38.74 14.7,-160.41 -3.23,-198.06 -31.54,-8.58 -105.62,-0.3 -138.61,-10.81 45.81,-36.54 88.13,-52.93 135.6,-90.8 -9.5,-49.7 -35.34,-177.16 -63.63,-254.78 174.61,14.99 325.27,64.57 453.8,143.45l0 -249.37c-73.12,-37.49 -150.48,-67.25 -232.5,-88.67 83.92,-15.61 177.22,-43.05 219.87,-77.07 -15.33,-35.09 -11.06,-140.55 -28.29,-176.77 21.93,-0.9 12.14,-5.58 40.92,25.95l0 -439.62c-80.62,43.62 -151.68,95.46 -250.2,173.12 -60.27,47.47 -106.62,110.04 -135.55,134.19 -0.95,-23.44 6.91,-26.82 16.25,-51.21 11.92,-31.18 46.44,-143.44 37,-164.61 -5.98,-13.33 -150.84,-83.73 -168.12,-91.26 97.05,-46.21 169.63,-0.32 189.2,-79.86 28.82,-117.16 46.93,-223.25 23.11,-349.49 -41.47,-13.16 -115.27,1.23 -143.92,-6.56l131.38 -96.11c-21.51,-45.16 -53.97,-270.77 -204.54,-495.57 -83.51,41.85 -223.1,336.5 -256.2,462.96l-39.75 164.29c-33.44,150.6 -34.98,352.08 -2.14,506.04l39.97 173.26c-59.44,-74.54 -16.35,-40.22 -118.3,-148.33 -40.34,32.18 -72.76,45.33 -109.12,69.69l31.99 -155.52c-15.15,-39.28 -295.41,-178.05 -302.38,-183.56 -30.52,28.8 -39.49,79.04 -70,107.84 -45.89,-68.47 -17.23,-137.32 -88.12,-158.85 -130.37,-39.64 -215.26,-52.82 -351.83,-44.99 -39.21,2.23 -144.56,14.64 -182.06,32.49 18.16,38.13 25.05,85.47 64.46,161.56 27.42,52.93 59.91,114.44 100.94,165.7 136.8,170.9 144.96,145.85 216.99,130.49 24.57,-5.19 55.41,-8.55 79.4,-19.95l8.44 10.57c-27.13,34.36 -37.57,69.28 -64.7,103.62 54.04,57.3 242.84,151.1 307.67,179.33 50.1,-39.93 74.52,-68.08 122.92,-106.69 3.37,40.19 -3.54,89.97 -0.2,130.17 1.59,0.29 3.05,-0.46 4.71,0.95l18.77 4.7c11.53,3.23 10.99,3.54 23.38,6.34 66.56,14.93 127.69,12.36 150.99,29.59 -34.3,15 -337.9,15.74 -643.78,235.87 -134.26,96.62 -186.09,140.77 -297.34,265.64 -71.26,79.99 -149.13,191.88 -179.78,288.35 20.42,6.49 38.36,8.13 61.83,7.73 30.17,-0.55 39.59,2.91 67.02,4.29 92.89,4.72 384.09,-8.61 409.86,-42.93 7.78,-10.37 12.76,-121.44 30.92,-146.01 32.22,40.4 37.03,83.63 63.31,122.86 117.66,-27.03 213.9,-92.56 340.01,-193.13 -2.2,-26.42 -30.04,-154.12 -43.12,-173.63l10.6 -8.44c9.62,11.55 130.11,109.97 136.88,111.77 38.57,10.4 133.67,-93.52 157.32,-112.39l-27.16 74.11c-70.87,178.39 -105.08,351.55 -103.6,524.95zm683.11 -882.18c-20.02,3.33 -39.2,5.92 -56.62,7.7 17.43,-1.78 36.59,-4.38 56.62,-7.7zm-142.87 -355.44l2.84 0.3c-0.18,0 -2.95,0.64 -2.84,-0.3zm-513.7 279.65l0 0zm0 0l-9.51 -1.07 9.51 1.07zm-421.27 -626.1l0 0z"/>
 </g>
</svg>
