<?xml version="1.0" encoding="UTF-8"?>
<!DOCTYPE svg PUBLIC "-//W3C//DTD SVG 1.1//EN" "http://www.w3.org/Graphics/SVG/1.1/DTD/svg11.dtd">
<!-- Creator: CorelDRAW 2019 (64 Bit) -->
<svg xmlns="http://www.w3.org/2000/svg" xml:space="preserve" width="84.6666mm" height="84.6666mm" version="1.1" style="shape-rendering:geometricPrecision; text-rendering:geometricPrecision; image-rendering:optimizeQuality; fill-rule:evenodd; clip-rule:evenodd"
viewBox="0 0 8466.66 8466.66"
 xmlns:xlink="http://www.w3.org/1999/xlink"
 xmlns:xodm="http://www.corel.com/coreldraw/odm/2003">
 <defs>
  <style type="text/css">
   <![CDATA[
    .fil0 {fill:#003249}
   ]]>
  </style>
 </defs>
 <g id="Camada_x0020_1">
  <metadata id="CorelCorpID_0Corel-Layer"/>
  <path class="fil0" d="M2522.53 4126.03c0,301.55 -271.04,93.86 -100.97,493.96 29.5,69.38 44.19,106.63 60.53,191 33.57,173.32 50.07,247.27 113.46,389.57 166.01,372.59 382.85,461.35 382.85,623.24 0,139.05 -216.34,47.16 -267.23,47.16l-157.21 0 0 125.76c0,173.71 382.17,438.21 730.87,243.56 185.6,-103.59 127.52,-199.67 416.24,-70.19 70.2,31.48 114.02,43.43 199.56,67.7 354.74,100.6 76.1,260.81 496.76,603.63 142.67,116.29 336.04,189.18 520.78,136.15 64.49,-18.49 61.61,-29.65 104.5,-52.71 73.51,-39.53 164.5,-32.8 243.69,-70.7 110.05,-52.64 242.97,-233.78 242.97,-385.84 0,-225.02 -154.46,-416.39 -302.14,-192.1 -68.53,104.09 -66.27,184.91 -295.24,82.07l-141.46 -78.61c268.57,-62.57 523.65,-295.7 711.32,-483.4 152.09,-152.1 254.32,-234.83 388.76,-412.94l195.4 -213.34c225.94,-188.79 267.05,-289.4 606.64,-289.4 137.28,0 393.01,81.26 393.01,188.64 0,267.96 -310.74,267.94 -471.16,550.66 -19.55,34.42 -30.3,67.02 -54.57,102.64 -75.03,110.12 -55.92,65.2 -55.92,289.9 0,47.22 34.16,101.42 47.16,157.21 66.41,-44.49 91.4,-93.52 173.27,-141.15 205.64,-119.64 338.86,-22.63 552.49,-92.02 99.56,-32.34 134.02,-110.32 201.72,-128.41 32.25,120.75 226.16,205.84 377.54,219.84 249.19,23.02 190.7,220.33 377.02,220.33 47.25,0 43.93,-296.77 39.38,-321.6 -57.45,-313.41 -709.98,-1131.58 -991.92,-1413.99 -2.29,-2.28 -5.63,-5.51 -7.97,-7.74 -182.72,-175.5 -397.7,-302.14 -662.28,-359.51 -193.25,-41.89 -482.67,-37.21 -663.26,36.87 -93.83,38.51 -182.77,69.79 -274.51,102.77 -293.54,105.5 -578.34,296.89 -913.57,296.89 -297.63,0 -563.69,-286.44 -760.64,-418.37 -67.23,-45.05 -116.41,-63.1 -181.86,-101.1 -65.22,-37.88 -119.66,-66.6 -194.58,-104.11 -73.58,-36.83 -130.34,-58.04 -204.52,-94.15 -305.83,-148.91 -353.44,-9.45 -519.22,-32.2 -95.2,-13.07 -196.8,-121.5 -288.18,-197.92l-504.04 -454.87c-33.76,-33.59 -49.35,-53.55 -88.88,-84.06l-672.09 -616.94c-50.78,-68.44 -54.4,-129.04 -128.84,-185.58 -85.98,-65.3 -179.41,-70.89 -277.31,-209.99 -155.26,-220.62 -155.32,-104.8 -240.67,-246.67 -101.51,-168.72 -101.28,-46.66 -244.14,-227.46 -21.74,-27.54 -57.52,-64.23 -84.12,-88.9 -50.49,-46.85 -132.54,-65.64 -138.27,-28.39l0 8.99c1.82,14.14 11.75,33.84 33.03,60.02l740.88 880.14c110.47,111.66 203.29,218.51 314.93,329.58 37.43,37.25 41.35,46.55 72.1,85.11l391.45 410.28c62.58,62.03 95.15,111.81 157.09,173.02l314.47 330.05c69.42,69.31 286.9,251.9 286.9,357.62z"/>
 </g>
</svg>
