<?xml version="1.0" encoding="UTF-8"?>
<!DOCTYPE svg PUBLIC "-//W3C//DTD SVG 1.1//EN" "http://www.w3.org/Graphics/SVG/1.1/DTD/svg11.dtd">
<!-- Creator: CorelDRAW 2019 (64 Bit) -->
<svg xmlns="http://www.w3.org/2000/svg" xml:space="preserve" width="1000px" height="1000px" version="1.1" style="shape-rendering:geometricPrecision; text-rendering:geometricPrecision; image-rendering:optimizeQuality; fill-rule:evenodd; clip-rule:evenodd"
viewBox="0 0 1000 1000"
 xmlns:xlink="http://www.w3.org/1999/xlink"
 xmlns:xodm="http://www.corel.com/coreldraw/odm/2003">
 <defs>
  <style type="text/css">
   <![CDATA[
    .fil0 {fill:#003249;fill-rule:nonzero}
   ]]>
  </style>
 </defs>
 <g id="Camada_x0020_1">
  <metadata id="CorelCorpID_0Corel-Layer"/>
  <path class="fil0" d="M399.69 654.53c-3.48,-8.89 -6.1,-18.83 -8.01,-29.81 -1.92,-11.15 -2.79,-21.61 -2.79,-31.37 0,-15.69 1.57,-29.98 4.53,-42.88 3.14,-13.08 7.67,-25.28 13.77,-36.61 6.28,-11.33 13.95,-22.31 23.01,-32.59 9.24,-10.46 20.05,-20.75 32.25,-31.03 12.9,-10.81 24.23,-20.92 33.99,-30.33 9.59,-9.41 17.95,-18.65 24.75,-28.07 6.8,-9.41 11.85,-19.17 15.34,-29.11 3.31,-10.1 5.06,-21.26 5.06,-33.46 0,-10.64 -1.92,-20.4 -5.58,-29.46 -3.84,-8.89 -9.07,-16.73 -16.21,-23.18 -6.98,-6.45 -15.34,-11.51 -25.45,-15.34 -10.11,-3.66 -21.27,-5.58 -33.47,-5.58 -26.5,0 -54.04,5.58 -82.8,16.56 -28.59,11.15 -55.61,27.89 -81.06,50.37l0 -153.74c26.15,-15.69 54.74,-27.36 85.77,-35.21 31.02,-7.84 62.92,-11.85 96.04,-11.85 31.55,0 61.01,3.48 88.2,10.63 27.37,6.97 51.08,17.96 71.3,32.95 20.22,14.81 36.08,33.99 47.59,57.34 11.33,23.36 17.08,51.43 17.08,84.02 0,20.74 -2.44,39.57 -7.15,56.48 -4.88,16.73 -11.85,32.77 -20.92,47.76 -9.23,14.99 -20.74,29.28 -34.34,43.05 -13.59,13.77 -29.28,28.07 -46.88,42.71 -12.03,9.93 -22.49,19 -31.38,27.54 -9.07,8.54 -16.56,16.91 -22.49,25.28 -5.92,8.36 -10.46,17.25 -13.59,26.49 -2.97,9.41 -4.54,20.05 -4.54,32.07 0,8.02 1.05,16.39 3.32,24.93 2.09,8.54 5.23,15.69 8.89,21.44l-134.23 0zm74.44 223.64c-27.2,0 -49.86,-8.02 -67.81,-24.4 -18.13,-17.09 -27.19,-37.13 -27.19,-60.32 0,-23.88 9.06,-43.75 27.19,-59.78 17.95,-16.04 40.61,-23.88 67.81,-23.88 27.01,0 49.15,7.84 66.93,23.88 17.78,15.68 26.5,35.56 26.5,59.78 0,24.58 -8.54,44.8 -25.97,60.84 -17.78,15.86 -40.27,23.88 -67.46,23.88z"/>
 </g>
</svg>
